<?xml version="1.0" standalone="no"?>
<!DOCTYPE svg PUBLIC "-//W3C//DTD SVG 20010904//EN"
 "http://www.w3.org/TR/2001/REC-SVG-20010904/DTD/svg10.dtd">
<svg version="1.0" xmlns="http://www.w3.org/2000/svg"
 width="724.000000pt" height="418.000000pt" viewBox="0 0 724.000000 418.000000"
 preserveAspectRatio="xMidYMid meet">

<g transform="translate(0.000000,418.000000) scale(0.100000,-0.100000)"
fill="#000000" stroke="none">
<path d="M890 3416 c0 -11 221 -1151 246 -1268 l6 -28 -80 0 c-74 0 -80 2 -85
23 -3 12 -49 217 -102 456 -83 376 -105 469 -105 438 0 -4 -75 -276 -166 -605
-91 -328 -212 -766 -270 -973 -57 -207 -104 -379 -104 -383 0 -3 209 -6 465
-6 431 0 466 1 472 17 5 13 -117 664 -145 776 -4 16 3 18 84 15 l89 -3 76
-395 75 -395 465 -6 c868 -11 1289 -10 1294 4 3 6 -30 189 -73 405 l-79 392
88 0 c49 0 89 -3 89 -6 0 -6 115 -611 141 -742 l10 -52 435 0 c239 0 434 1
434 3 0 1 -101 529 -224 1172 l-223 1170 -441 3 c-243 1 -442 1 -442 -1 0 -2
56 -291 125 -643 69 -351 125 -645 125 -651 0 -9 -22 -13 -78 -13 l-77 0 -100
455 c-55 250 -103 455 -106 455 -3 0 -120 -412 -259 -916 -140 -503 -256 -912
-257 -907 -3 11 -423 2211 -423 2218 0 3 -198 5 -440 5 -369 0 -440 -2 -440
-14z"/>
<path d="M6175 3319 c-210 -23 -434 -83 -580 -157 -212 -106 -380 -297 -448
-507 -40 -124 -48 -220 -45 -567 3 -365 0 -393 -54 -502 -65 -129 -196 -218
-383 -258 -81 -17 -133 -22 -270 -21 -93 0 -191 4 -217 10 -35 8 -46 7 -41 -1
3 -6 26 -43 51 -83 l45 -72 69 -16 c154 -35 332 -47 598 -42 345 6 542 41 772
135 273 112 446 268 511 461 45 132 50 180 53 506 3 355 6 403 35 505 56 202
169 308 387 362 70 18 118 22 252 22 91 1 200 -3 243 -7 l78 -8 -54 78 -55 78
-103 26 c-173 44 -316 61 -544 64 -115 2 -250 -1 -300 -6z"/>
<path d="M315 909 c-28 -23 -50 -49 -51 -58 0 -9 -7 -29 -16 -46 -9 -16 -27
-67 -42 -113 -33 -104 -48 -135 -80 -156 -20 -12 -26 -25 -26 -50 0 -19 5 -36
11 -38 8 -3 4 -30 -11 -86 -12 -45 -20 -89 -16 -97 12 -32 36 1 65 93 18 53
35 102 39 107 10 14 130 54 172 57 l35 3 -4 -117 c-3 -101 -1 -118 12 -118 23
0 30 26 42 175 4 39 12 80 18 93 7 15 7 26 2 30 -6 4 -11 54 -13 112 -3 128
-6 136 -43 156 -28 14 -30 18 -24 55 9 51 -6 51 -70 -2z m55 -159 c17 -25 20
-41 18 -102 l-3 -73 -78 -9 c-80 -9 -97 -6 -80 16 5 7 24 49 43 93 50 119 62
128 100 75z"/>
<path d="M728 917 c-19 -18 -42 -36 -52 -40 -12 -5 -16 -13 -12 -23 4 -9 0
-26 -7 -38 -8 -12 -31 -72 -51 -134 -21 -62 -43 -118 -50 -123 -6 -5 -19 -15
-29 -22 -24 -16 -36 -87 -15 -87 13 0 11 -15 -10 -91 -17 -61 -22 -93 -15
-100 17 -17 39 15 63 93 34 113 40 121 112 145 34 12 80 25 101 29 l38 6 -6
-121 c-5 -102 -3 -121 9 -121 8 0 18 4 21 10 9 14 36 232 30 238 -3 3 -1 10 4
16 6 7 6 43 0 90 -4 43 -6 82 -4 86 3 5 2 29 -2 55 -5 40 -11 51 -40 68 -35
20 -37 29 -17 81 11 29 -33 18 -68 -17z m37 -157 c22 -24 36 -104 26 -151 -7
-34 -7 -34 -80 -43 -40 -4 -75 -5 -78 -2 -3 3 2 25 12 48 77 179 84 188 120
148z"/>
<path d="M1155 929 c-113 -46 -205 -143 -205 -215 0 -36 51 -134 70 -134 16 0
100 -113 100 -134 0 -26 -54 -95 -66 -83 -4 4 1 14 12 22 11 8 14 14 6 15 -16
0 -112 -48 -135 -68 -16 -14 -16 -16 -1 -34 31 -33 92 -15 176 52 32 25 61 40
79 40 37 0 48 20 21 38 -14 9 -22 25 -22 44 0 38 -12 59 -76 135 -59 69 -84
112 -84 142 0 25 66 101 88 101 12 0 10 -6 -8 -25 -32 -34 -20 -41 27 -16 64
32 105 76 101 108 -4 35 -20 37 -83 12z"/>
<path d="M1663 908 c-26 -23 -48 -49 -49 -57 0 -9 -7 -29 -16 -46 -9 -16 -28
-68 -42 -113 -32 -103 -41 -120 -77 -154 -30 -27 -41 -82 -18 -90 7 -2 3 -31
-11 -87 -12 -46 -19 -90 -16 -97 12 -31 36 4 65 94 18 53 35 102 39 107 10 14
130 54 172 57 l35 3 -3 -117 c-3 -101 -2 -118 12 -118 15 0 40 65 31 81 -3 4
-1 19 5 33 5 14 10 52 11 83 1 32 6 64 11 70 6 7 7 21 3 30 -7 16 -10 58 -14
211 -1 26 -8 37 -37 54 -36 21 -39 33 -19 81 14 32 -32 19 -82 -25z m57 -158
c17 -25 20 -41 18 -102 l-3 -73 -60 -8 c-110 -14 -109 -16 -61 93 22 53 45
101 49 108 14 20 34 14 57 -18z"/>
<path d="M6638 915 c-14 -8 -35 -29 -46 -47 -29 -48 -90 -228 -103 -306 -12
-73 -24 -97 -66 -136 -24 -23 -29 -24 -42 -11 -14 13 -16 26 -20 83 -2 25 -42
11 -83 -29 -54 -51 -87 -74 -95 -65 -4 4 40 54 97 111 78 79 101 108 93 116
-23 23 -73 -6 -193 -114 -94 -86 -144 -127 -153 -127 -28 0 33 265 64 273 15
4 18 16 17 81 0 89 -15 100 -48 36 l-20 -40 -76 0 c-76 0 -80 -2 -86 -45 -3
-18 3 -20 60 -23 34 -2 62 -7 62 -12 0 -21 -87 -152 -126 -191 -47 -46 -67
-47 -78 -2 -4 15 -15 36 -23 46 -29 32 -61 21 -124 -43 -32 -33 -59 -56 -59
-51 0 4 9 34 20 66 22 64 26 110 9 120 -23 15 -58 -9 -129 -89 -70 -79 -113
-110 -94 -68 4 9 9 38 12 63 5 60 -16 83 -69 76 -29 -4 -36 -2 -32 9 3 9 -2
14 -13 14 -11 -1 -68 -48 -129 -105 -126 -120 -183 -155 -250 -157 -59 -1 -92
23 -124 88 -21 44 -23 58 -18 134 13 178 128 312 236 274 31 -11 40 -48 17
-73 -17 -19 -46 -129 -46 -178 0 -26 4 -33 19 -33 41 0 71 64 90 190 18 124
-6 170 -89 170 -76 0 -206 -96 -253 -186 -76 -147 -74 -316 5 -393 42 -41 121
-59 180 -42 50 15 127 61 181 108 20 18 40 33 43 33 4 0 4 -14 0 -30 -7 -38 7
-75 34 -90 24 -13 82 0 120 27 13 9 36 16 51 15 20 -3 41 11 95 62 38 36 72
62 76 58 4 -4 -3 -41 -16 -82 -13 -41 -22 -80 -19 -87 10 -25 41 -13 85 35 52
55 106 102 118 102 5 0 23 -20 40 -45 45 -65 62 -61 155 33 61 60 76 72 72 52
-25 -111 -29 -152 -19 -175 17 -37 42 -30 97 25 51 52 73 64 55 31 -15 -30
-12 -49 10 -61 26 -14 48 -2 119 62 60 52 71 57 71 30 0 -28 29 -62 54 -62 12
0 40 13 62 30 45 34 54 36 54 13 0 -44 22 -94 45 -105 21 -9 30 -7 62 15 21
15 44 36 51 47 7 11 21 20 31 20 10 0 37 18 60 40 22 22 45 40 50 40 4 0 19
-21 33 -47 36 -71 84 -72 159 -3 24 22 47 40 51 40 3 0 9 -13 13 -29 9 -42 35
-61 89 -63 41 -2 50 2 81 32 24 24 32 39 26 49 -7 11 -13 11 -32 -3 -31 -21
-82 -20 -102 2 -28 31 -21 77 22 140 65 97 102 183 120 285 13 70 7 87 -29 87
-24 0 -34 -9 -64 -58 -52 -85 -97 -205 -113 -302 -9 -54 -22 -93 -34 -106 -10
-11 -19 -26 -19 -32 0 -7 -3 -11 -7 -10 -5 1 -18 -3 -31 -11 -41 -22 -55 -11
-72 59 -20 87 -38 90 -109 15 -55 -58 -73 -64 -53 -20 19 42 15 55 -18 55 -24
0 -36 -9 -60 -42 -32 -44 -37 -67 -18 -86 16 -16 -7 -42 -38 -42 -24 0 -28 8
-40 72 -5 30 -1 47 19 80 125 217 171 326 165 390 -4 38 -27 46 -70 23z m-14
-167 c-37 -111 -87 -205 -70 -130 8 32 79 191 85 186 1 -1 -5 -27 -15 -56z
m541 -7 c-15 -58 -65 -153 -83 -159 -13 -4 38 146 64 186 24 37 33 25 19 -27z
m-1817 -254 c4 -31 -29 -92 -58 -107 -27 -15 -57 -12 -64 5 -8 22 9 60 46 100
40 42 71 43 76 2z"/>
<path d="M6358 745 c-58 -62 -66 -75 -49 -75 12 0 131 80 131 88 0 17 -13 52
-19 51 -3 0 -32 -29 -63 -64z"/>
<path d="M3957 755 c-53 -51 -48 -95 8 -81 30 8 53 40 57 81 4 43 -21 43 -65
0z"/>
<path d="M6837 755 c-38 -37 -43 -50 -28 -74 12 -19 57 -6 75 22 8 12 16 35
18 52 4 43 -21 43 -65 0z"/>
<path d="M2530 643 c-35 -29 -80 -113 -80 -149 0 -25 -101 -125 -108 -106 -2
7 6 41 18 76 13 40 20 83 18 113 -5 74 -26 66 -159 -59 -126 -119 -159 -145
-159 -128 0 7 9 42 21 80 25 85 23 154 -6 157 -24 3 -215 -175 -215 -200 0
-26 7 -22 72 38 84 78 98 73 82 -27 -6 -34 -9 -37 -30 -32 -26 7 -27 4 -24
-56 2 -44 9 -70 20 -70 15 0 134 93 213 167 43 40 85 73 93 73 15 0 18 -36 8
-89 -6 -26 -10 -30 -30 -25 -23 6 -24 4 -24 -37 0 -64 9 -91 29 -84 17 7 86
56 137 99 35 29 64 29 64 2 0 -28 45 -49 89 -41 32 5 59 24 131 91 51 46 98
84 106 84 12 0 13 -10 8 -52 -8 -62 -8 -62 -37 -63 -15 0 -23 -7 -25 -22 -4
-27 16 -103 27 -103 16 0 135 93 213 167 103 96 117 96 100 -2 -6 -34 -11 -40
-32 -40 -18 0 -26 -6 -28 -22 -4 -27 16 -103 27 -103 12 0 162 112 185 139 27
30 38 26 31 -13 -17 -88 68 -120 155 -59 13 9 36 16 51 15 21 -3 43 13 114 82
69 66 92 83 102 74 17 -14 16 -82 -2 -133 -8 -22 -15 -48 -15 -57 0 -41 84 -6
170 72 25 22 48 40 52 40 3 0 16 -20 28 -45 25 -52 30 -56 70 -57 20 -1 44 10
72 32 31 25 40 29 34 14 -19 -44 -18 -62 3 -73 27 -15 59 1 128 63 57 51 63
54 63 28 0 -28 29 -62 54 -62 24 0 87 38 93 55 1 6 -1 17 -7 25 -7 12 -12 12
-28 -4 -19 -17 -21 -16 -36 5 -8 12 -13 26 -10 31 11 17 -6 58 -24 58 -9 0
-37 -18 -62 -41 -66 -59 -100 -82 -100 -68 0 6 45 58 100 114 55 55 100 107
100 113 0 18 -42 15 -70 -5 -28 -18 -122 -98 -173 -145 -57 -54 -96 -80 -114
-76 -12 2 -22 22 -33 68 -11 47 -20 66 -33 68 -12 2 -48 -25 -103 -78 -46 -44
-89 -78 -94 -75 -5 3 -3 23 6 47 17 48 18 75 4 114 -12 33 -62 71 -88 66 -25
-5 -52 -32 -52 -53 0 -22 -105 -137 -116 -127 -4 5 -2 19 4 33 17 37 15 91 -5
110 -12 13 -27 16 -56 12 -30 -4 -37 -2 -33 9 14 37 -37 6 -119 -72 -113 -107
-165 -149 -165 -134 0 7 9 42 21 80 11 38 19 87 17 111 -2 37 -7 45 -25 47
-17 3 -44 -17 -105 -77 -158 -154 -209 -195 -195 -157 45 117 59 222 31 233
-25 9 -47 -7 -146 -103 -52 -50 -103 -96 -115 -102 -43 -23 -93 -9 -93 26 0 8
20 36 45 64 64 72 73 148 18 156 -11 2 -35 -9 -53 -25z m30 -76 c0 -8 -11 -24
-25 -37 -28 -26 -33 -12 -9 25 18 27 34 33 34 12z m898 -70 c6 -31 -6 -60 -37
-94 -30 -33 -73 -44 -86 -23 -13 21 8 71 43 105 39 38 74 43 80 12z"/>
</g>
</svg>
